<svg width="22" height="22" viewBox="0 0 22 22" fill="none" xmlns="http://www.w3.org/2000/svg">
<path d="M20.3333 0.5C20.6428 0.5 20.9395 0.622916 21.1583 0.841709C21.3771 1.0605 21.5 1.35725 21.5 1.66667V20.3333C21.5 20.6428 21.3771 20.9395 21.1583 21.1583C20.9395 21.3771 20.6428 21.5 20.3333 21.5H1.66667C1.35725 21.5 1.0605 21.3771 0.841709 21.1583C0.622916 20.9395 0.5 20.6428 0.5 20.3333V1.66667C0.5 1.35725 0.622916 1.0605 0.841709 0.841709C1.0605 0.622916 1.35725 0.5 1.66667 0.5H20.3333ZM9.83333 12.1667H2.83333V19.1667H9.83333V12.1667ZM12.1667 19.1667H19.1667V2.83333H12.1667V19.1667ZM9.83333 2.83333H2.83333V9.83333H9.83333V2.83333Z" fill="#A1AAB3"/>
</svg>
